<svg xmlns="http://www.w3.org/2000/svg" xmlns:xlink="http://www.w3.org/1999/xlink"><symbol id="icon-cart" viewBox="0 -31 512 512"><path d="M164.96 300.004h.024c.02 0 .04-.004.059-.004H437a15.003 15.003 0 0014.422-10.879l60-210a15.003 15.003 0 00-2.445-13.152A15.006 15.006 0 00497 60H130.367l-10.722-48.254A15.003 15.003 0 00105 0H15C6.715 0 0 6.715 0 15s6.715 15 15 15h77.969c1.898 8.55 51.312 230.918 54.156 243.71C131.184 280.64 120 296.536 120 315c0 24.812 20.188 45 45 45h272c8.285 0 15-6.715 15-15s-6.715-15-15-15H165c-8.27 0-15-6.73-15-15 0-8.258 6.707-14.977 14.96-14.996zM477.114 90l-51.43 180H177.032l-40-180zm0 0M150 405c0 24.813 20.188 45 45 45s45-20.188 45-45-20.188-45-45-45-45 20.188-45 45zm45-15c8.27 0 15 6.73 15 15s-6.73 15-15 15-15-6.73-15-15 6.73-15 15-15zm0 0M362 405c0 24.813 20.188 45 45 45s45-20.188 45-45-20.188-45-45-45-45 20.188-45 45zm45-15c8.27 0 15 6.73 15 15s-6.73 15-15 15-15-6.73-15-15 6.73-15 15-15zm0 0"/></symbol><symbol id="icon-fb"><path d="M17.525 9H14V7c0-1.032.084-1.682 1.563-1.682h1.868v-3.18A26.065 26.065 0 0014.693 2C11.98 2 10 3.657 10 6.699V9H7v4l3-.001V22h4v-9.003l3.066-.001L17.525 9z"/></symbol><symbol id="icon-search" viewBox="0 0 512.005 512.005"><path d="M505.749 475.587l-145.6-145.6c28.203-34.837 45.184-79.104 45.184-127.317C405.333 90.926 314.41.003 202.666.003S0 90.925 0 202.669s90.923 202.667 202.667 202.667c48.213 0 92.48-16.981 127.317-45.184l145.6 145.6c4.16 4.16 9.621 6.251 15.083 6.251s10.923-2.091 15.083-6.251c8.341-8.341 8.341-21.824-.001-30.165zM202.667 362.669c-88.235 0-160-71.765-160-160s71.765-160 160-160 160 71.765 160 160-71.766 160-160 160z"/></symbol><symbol id="icon-twitter"><path d="M24 4.3c-.898.4-1.8.7-2.8.802 1-.602 1.8-1.602 2.198-2.704-1 .602-2 1-3.097 1.204C19.3 2.602 18 2 16.6 2A4.907 4.907 0 0011.7 6.898c0 .403 0 .801.102 1.102-4.102-.2-7.7-2.102-10.102-5.102C1.2 3.602 1 4.5 1 5.398c0 1.704.898 3.204 2.2 4.102-.802-.102-1.598-.3-2.2-.602V9c0 2.398 1.7 4.398 3.898 4.8-.398.098-.796.2-1.296.2-.301 0-.602 0-.903-.102.602 2 2.403 3.403 4.602 3.403-1.7 1.3-3.801 2.097-6.102 2.097-.398 0-.8 0-1.199-.097C2.2 20.699 4.8 21.5 7.5 21.5c9.102 0 14-7.5 14-14v-.602c1-.699 1.8-1.597 2.5-2.597"/></symbol><symbol id="icon-youtube"><path d="M6.313.031l1.78 5.844v3.813h1.5v-4L11.314.03h-1.5l-.938 3.844h-.094L7.812.031zm6.906 2.344c-.602 0-1.082.172-1.438.5-.355.324-.531.762-.531 1.313v3.687c0 .605.184 1.113.531 1.469.352.36.793.531 1.375.531.602 0 1.094-.184 1.438-.531.344-.348.5-.828.5-1.438V4.22c0-.543-.18-.969-.531-1.313-.348-.347-.793-.531-1.344-.531zm3 .188V8.53c0 .426.093.727.25.938.156.21.383.312.687.312.246 0 .489-.07.75-.219.266-.152.54-.367.782-.656v.781H20V2.564h-1.313v5.406a1.826 1.826 0 01-.406.375c-.148.101-.277.156-.375.156-.12 0-.226-.02-.281-.094-.059-.074-.063-.21-.063-.375V2.562zm-3.063 1.062c.176 0 .332.031.438.125.11.098.156.223.156.375v3.906c0 .192-.05.332-.156.438-.106.11-.258.156-.438.156-.176 0-.312-.05-.406-.156-.098-.106-.125-.242-.125-.438V4.125a.5.5 0 01.156-.375c.102-.094.215-.125.375-.125zM13 11.156c-2.594-.004-5.137.02-7.625.125-1.738 0-3.156 1.403-3.156 3.125a51.207 51.207 0 00-.156 4.094c-.004 1.363.05 2.73.156 4.094 0 1.722 1.418 3.125 3.156 3.125 2.488.101 5.031.129 7.625.125a174.3 174.3 0 007.625-.125c1.738 0 3.156-1.403 3.156-3.125.106-1.364.16-2.73.157-4.094.007-1.363-.051-2.73-.157-4.094 0-1.722-1.418-3.125-3.156-3.125-2.484-.105-5.027-.129-7.625-.125zm-9.25 2.219h4.594c.082 0 .156.074.156.156v1.406a.162.162 0 01-.156.157H6.938v8.094c0 .082-.043.156-.125.156h-1.5a.162.162 0 01-.157-.157v-8.093H3.75c-.082 0-.125-.074-.125-.156V13.53c0-.082.043-.156.125-.156zm9.656 0h1.344c.082 0 .156.074.156.156v2.719c.11-.102.227-.184.344-.25.227-.125.457-.188.688-.188.468 0 .812.188 1.062.532.238.332.375.797.375 1.406v3.969c0 .539-.113.957-.344 1.25-.238.304-.593.468-1.031.468-.277 0-.523-.074-.75-.187a1.546 1.546 0 01-.344-.219v.157a.162.162 0 01-.156.156h-1.344a.162.162 0 01-.156-.157v-9.656c0-.082.074-.156.156-.156zm6.813 2.344c.648 0 1.18.203 1.531.594.352.39.531.945.531 1.656v1.843c0 .083-.074.125-.156.125H19.75v1.22c0 .437.047.609.094.687.039.062.105.156.312.156.168 0 .285-.047.344-.125.027-.043.094-.2.094-.719v-.5c0-.082.074-.156.156-.156h1.375c.082 0 .156.074.156.156v.532c0 .769-.207 1.355-.562 1.75-.356.398-.89.593-1.594.593-.637 0-1.133-.199-1.5-.625-.363-.418-.563-.996-.563-1.718v-3.22c0-.655.192-1.175.594-1.593.403-.418.93-.656 1.563-.656zm-11.875.187h1.312c.082 0 .156.074.156.156v5.47c0 .179.012.253.032.28.008.012.043.063.156.063.04 0 .125-.016.281-.125.13-.086.242-.191.344-.313v-5.375c0-.082.074-.156.156-.156h1.344c.082 0 .125.074.125.156v7.125c0 .083-.043.157-.125.157h-1.344a.162.162 0 01-.156-.157v-.406a2.6 2.6 0 01-.531.407c-.29.164-.563.25-.844.25-.355 0-.629-.122-.813-.375-.175-.239-.25-.579-.25-1.032v-5.968c0-.083.075-.157.157-.157zm6.906 1.344c-.05.008-.102.035-.156.063a.737.737 0 00-.188.156v4.312c.078.082.145.153.219.188.082.039.16.062.25.062.168 0 .234-.07.25-.093.04-.051.063-.168.063-.407v-3.687c0-.203-.02-.371-.094-.469a.335.335 0 00-.344-.125zm4.938.031c-.16 0-.278.035-.344.125-.047.067-.094.23-.094.563v.562h.844v-.562c0-.328-.043-.489-.094-.563-.063-.086-.16-.125-.313-.125z"/></symbol></svg>